<?xml version="1.0" encoding="UTF-8" standalone="no"?>
<svg
   xmlns:dc="http://purl.org/dc/elements/1.1/"
   xmlns:cc="http://creativecommons.org/ns#"
   xmlns:rdf="http://www.w3.org/1999/02/22-rdf-syntax-ns#"
   xmlns:svg="http://www.w3.org/2000/svg"
   xmlns="http://www.w3.org/2000/svg"
   xmlns:sodipodi="http://sodipodi.sourceforge.net/DTD/sodipodi-0.dtd"
   xmlns:inkscape="http://www.inkscape.org/namespaces/inkscape"
   sodipodi:docname="flagcookies_icon.svg"
   id="svg869"
   version="1.1"
   viewBox="0 0 480 480"
   height="480"
   width="480"
   inkscape:version="0.92.3 (2405546, 2018-03-11)"
   style="enable-background:new"
   inkscape:export-filename="/home/jan/Schreibtisch/git/flagCookies/flagcookies_icon_ff2.svg.png"
   inkscape:export-xdpi="12.75411"
   inkscape:export-ydpi="12.75411">
  <metadata
     id="metadata875">
    <rdf:RDF>
      <cc:Work
         rdf:about="">
        <dc:format>image/svg+xml</dc:format>
        <dc:type
           rdf:resource="http://purl.org/dc/dcmitype/StillImage" />
        <dc:title></dc:title>
      </cc:Work>
    </rdf:RDF>
  </metadata>
  <defs
     id="defs873" />
  <sodipodi:namedview
     inkscape:current-layer="svg869"
     inkscape:window-maximized="1"
     inkscape:window-y="33"
     inkscape:window-x="0"
     inkscape:cy="144.16044"
     inkscape:cx="-37.6365"
     inkscape:zoom="0.52473958"
     showgrid="false"
     id="namedview871"
     inkscape:window-height="1018"
     inkscape:window-width="1920"
     inkscape:pageshadow="2"
     inkscape:pageopacity="0"
     guidetolerance="10"
     gridtolerance="10"
     objecttolerance="10"
     borderopacity="1"
     bordercolor="#666666"
     pagecolor="#ffffff"
     inkscape:pagecheckerboard="true"
     scale-x="10"
     fit-margin-top="0"
     fit-margin-left="0"
     fit-margin-right="0"
     fit-margin-bottom="0"
     borderlayer="false" />
  <rect
     style="display:inline;opacity:1;fill:#f4e3d7;fill-opacity:1;fill-rule:evenodd;stroke:#b38049;stroke-width:4.96118689;stroke-linecap:butt;stroke-linejoin:round;stroke-miterlimit:4;stroke-dasharray:none;stroke-dashoffset:0;stroke-opacity:1;paint-order:stroke markers fill"
     id="rect1240"
     width="464.91403"
     height="464.91403"
     x="8.7947512"
     y="9.4931259"
     rx="144.76477"
     ry="144.76477" />
  <g
     id="g850"
     transform="matrix(10.903795,0,0,10.903795,-22.680432,15.666079)"
     style="display:inline;stroke:none;stroke-width:0.41056949;stroke-linecap:butt;stroke-linejoin:round;stroke-miterlimit:4;stroke-dasharray:none;stroke-opacity:1;paint-order:stroke markers fill">
    <path
       style="display:inline;fill:#b38049;fill-rule:nonzero;stroke:none;stroke-width:0.41056949;stroke-linecap:butt;stroke-linejoin:round;stroke-miterlimit:4;stroke-dasharray:none;stroke-opacity:1;paint-order:stroke markers fill"
       d="M 21.034449,37.062728 C 16.258082,36.255729 11.603401,32.738404 9.4368418,28.298959 7.6357049,24.608292 7.1403253,20.70973 7.9677311,16.737267 9.2142556,10.752559 14.029391,5.6273633 19.74263,4.2041475 l 1.368433,-0.3408885 0.883058,0.8602315 c 0.691868,0.6739821 1.184794,0.8972443 2.276689,1.0311824 l 1.393634,0.1709509 0.14663,1.8937262 c 0.115888,1.4966026 0.274053,2.0300588 0.754291,2.543841 0.802086,0.858107 2.1261,1.273319 3.38089,1.060249 0.853856,-0.144989 1.061218,-0.08849 1.296433,0.353241 0.153993,0.289208 0.279997,0.784633 0.279997,1.100943 0,1.63297 2.278131,3.351295 3.952938,2.981582 1.150732,-0.254024 1.570174,0.245385 1.364401,1.624524 -0.317318,2.126764 0.806831,3.48882 2.879433,3.48882 1.235038,0 1.335175,0.360845 0.818554,2.949659 -1.35147,6.772278 -6.59877,11.96018 -13.281868,13.131522 -2.690247,0.471518 -3.477432,0.472658 -6.221688,0.0091 z"
       id="path1291"
       inkscape:connector-curvature="0" />
    <path
       style="display:inline;fill:#a57745;fill-rule:nonzero;stroke:none;stroke-width:0.41056949;stroke-linecap:butt;stroke-linejoin:round;stroke-miterlimit:4;stroke-dasharray:none;stroke-opacity:1;paint-order:stroke markers fill"
       d="M 22.394636,37.166633 C 17.317132,36.636434 12.081022,33.112426 9.7128088,28.631501 8.2065476,25.781485 7.7161178,23.780644 7.7072226,20.449179 7.7001064,17.808826 7.7904409,17.17256 8.4433141,15.260557 9.9543226,10.835428 12.958066,7.4022642 17.072364,5.3978818 20.061997,3.9414089 21.212341,3.7043021 21.615515,4.4614563 22.050694,5.27872 23.007986,5.8114232 24.411382,6.0172698 l 1.253062,0.1837963 -0.08311,1.2011913 c -0.103357,1.4937848 0.463839,2.9125736 1.415384,3.5404616 0.428803,0.282951 1.410074,0.531744 2.402555,0.609147 l 1.677703,0.130841 0.326938,1.299033 c 0.227233,0.902865 0.611646,1.561271 1.260493,2.158908 0.835907,0.769934 1.095085,0.859874 2.477873,0.859874 1.702148,0 1.901459,0.185776 1.544154,1.43927 -0.514199,1.803896 0.775477,3.532758 2.635321,3.532758 1.38692,0 1.633072,0.398185 1.311068,2.120836 -1.064123,5.692873 -4.263205,10.007327 -9.272385,12.505236 -2.749876,1.371271 -5.778107,1.900873 -8.965804,1.568011 z m -0.751933,-5.404275 c 0.645866,-0.170379 1.337768,-0.137959 2.291617,0.107394 1.877905,0.483023 4.457696,-0.147976 7.162392,-1.75187 L 32.10104,29.52231 31.356219,29.140897 c -1.188587,-0.608663 -1.903795,-1.392127 -2.210703,-2.421687 -0.585361,-1.963666 1.150181,-4.176545 3.275632,-4.176545 1.469434,0 3.263673,1.625603 3.266415,2.959408 0.0013,0.680408 0.368526,0.358071 1.270814,-1.115764 l 0.790668,-1.291513 -0.917598,-0.569981 C 35.718778,21.833665 34.742688,20.393587 34.509998,19.099857 34.361757,18.275675 34.219241,18.120683 33.481764,17.98163 32.211115,17.742046 30.680523,16.502721 29.953,15.124377 29.423356,14.120927 29.149467,13.877083 28.398541,13.74045 25.701779,13.249763 23.461123,10.820747 23.452785,8.3789272 23.451904,8.1209526 23.158393,7.8948027 22.706586,7.8039837 22.296978,7.7216467 21.596164,7.3450221 21.149223,6.9670403 20.20863,6.1715728 19.986645,6.2054025 17.449295,7.5308955 c -2.07691,1.0849622 -4.073885,2.9532205 -5.459014,5.1071465 -0.570086,0.886501 -1.036518,1.697037 -1.036518,1.801189 0,0.104162 0.359059,0.338848 0.797908,0.521547 1.221615,0.508574 2.066456,1.949548 2.064403,3.521083 -0.0025,1.974006 -0.989834,3.257213 -2.927402,3.804959 -1.1090026,0.313512 -1.1329732,0.415424 -0.556786,2.367255 0.965331,3.270053 2.042439,4.632133 4.729024,5.980183 2.948952,1.479698 4.343126,1.718658 6.581793,1.1281 z m -2.556277,-3.599777 c -4.388253,-2.236185 -3.261945,-8.926227 1.595425,-9.476499 3.966328,-0.449329 6.844886,3.693684 5.047684,7.264968 -0.76242,1.515033 -2.288254,2.577126 -3.972254,2.764982 -1.073428,0.119736 -1.539188,0.02323 -2.670855,-0.553451 z M 17.623008,14.668988 c -1.653358,-1.307123 -1.887724,-3.546235 -0.521231,-4.9797769 2.560571,-2.6862052 6.895947,0.097593 5.475023,3.5155799 -0.769208,1.8503 -3.459583,2.645499 -4.953792,1.464197 z"
       id="path1293"
       inkscape:connector-curvature="0" />
    <path
       style="display:inline;fill:#8e663a;fill-rule:nonzero;stroke:none;stroke-width:0.41056949;stroke-linecap:butt;stroke-linejoin:round;stroke-miterlimit:4;stroke-dasharray:none;stroke-opacity:1;paint-order:stroke markers fill"
       d="M 19.41566,36.461331 C 16.816547,35.541473 16.15189,35.18939 14.128135,33.660393 11.477838,31.658033 9.5774657,28.834679 8.3029993,25.006085 7.8110464,23.528224 7.7046101,22.669689 7.7218395,20.318337 7.7402595,17.803272 7.841323,17.169977 8.5221298,15.303005 9.635193,12.250672 10.802512,10.453518 13.067401,8.3053034 15.041041,6.4333322 16.927172,5.3060449 19.729389,4.323623 l 1.355192,-0.4751136 0.85792,0.9891241 c 0.703742,0.8113709 1.091865,1.021965 2.159746,1.1718699 l 1.30183,0.1827456 0.151434,1.7690153 c 0.125864,1.4703092 0.275996,1.8996918 0.889135,2.5429167 0.901329,0.945551 2.220425,1.4155 3.366572,1.199392 1.003897,-0.189287 1.309933,0.0928 1.548602,1.427423 0.338115,1.890716 1.685914,2.910374 3.921802,2.966991 l 1.318198,0.03338 -0.07863,1.321022 c -0.142998,2.402445 0.655859,3.401486 2.991423,3.741022 l 1.253064,0.182167 -0.09348,1.168586 c -0.125443,1.567984 -1.3041,4.846543 -2.399967,6.675702 -1.131584,1.888775 -3.674527,4.452627 -5.529668,5.57513 -2.641235,1.59815 -4.892704,2.232038 -8.24976,2.322673 -2.732312,0.07378 -3.176396,0.01635 -5.077135,-0.656336 z m 1.911253,-4.377833 c 1.024596,-0.358654 1.277566,-0.35403 2.708395,0.04947 1.295596,0.365368 1.82046,0.394011 2.930745,0.159946 1.548398,-0.326427 4.368008,-1.643776 5.488103,-2.564098 l 0.760904,-0.625193 -0.7811,-0.01031 c -1.994639,-0.02651 -3.571255,-2.101138 -3.014966,-3.967274 1.035055,-3.472222 6.009177,-2.805368 6.009177,0.805617 0,0.438929 0.112796,0.798054 0.250665,0.798054 0.333911,0 2.352995,-3.004738 2.352995,-3.501656 0,-0.214578 -0.441381,-0.63947 -0.980845,-0.944202 C 35.861867,21.612136 34.998517,20.405829 34.710807,19.014051 34.521529,18.098432 34.385526,17.951643 33.54034,17.750747 32.32142,17.460951 30.341534,15.718908 29.929468,14.573579 29.657476,13.817587 29.460244,13.66839 28.549562,13.52973 26.174425,13.168093 24.15658,11.235888 23.769671,8.9527075 23.604262,7.9766162 23.457641,7.7617814 22.84438,7.5969387 22.443575,7.4892036 21.711396,7.0911591 21.217315,6.7123956 20.175272,5.9135622 19.987087,5.9434633 17.334165,7.3294021 c -2.20497,1.1519198 -4.657789,3.5152909 -5.858492,5.6448509 -0.837961,1.486202 -0.854218,1.56525 -0.376701,1.831799 0.27448,0.153218 0.939917,0.706311 1.478752,1.229105 0.902766,0.875891 0.9797,1.065261 0.9797,2.411487 0,1.264582 -0.10989,1.586735 -0.817494,2.396746 -0.530766,0.607571 -1.215675,1.04283 -1.952747,1.240966 -0.744684,0.200183 -1.1352491,0.450219 -1.1352491,0.726772 0,0.8177 0.8402091,3.282225 1.6304361,4.782432 0.901351,1.711175 1.750315,2.521342 3.679091,3.510964 2.733078,1.402295 4.416493,1.661197 6.365452,0.978974 z m -1.922026,-3.998429 c -3.342464,-1.575252 -3.866315,-5.621829 -1.049559,-8.107508 3.065359,-2.705062 8.036945,-0.0081 7.639947,4.144421 -0.310194,3.244622 -3.739362,5.30673 -6.590388,3.963087 z M 17.682715,14.363687 c -1.365873,-1.16047 -1.625517,-2.600668 -0.733859,-4.070575 0.289003,-0.4764242 0.925684,-1.034298 1.41485,-1.2397196 2.517174,-1.0570739 5.102576,1.6492306 3.936001,4.1200646 -0.822567,1.742217 -3.235242,2.364188 -4.616992,1.19023 z"
       id="path1295"
       inkscape:connector-curvature="0" />
    <path
       style="fill:#654f38;fill-rule:nonzero;stroke:none;stroke-width:0.41056949;stroke-linecap:butt;stroke-linejoin:round;stroke-miterlimit:4;stroke-dasharray:none;stroke-opacity:1;paint-order:stroke markers fill"
       d="M 19.285476,36.329344 C 16.340823,35.322293 14.463382,34.124592 12.348086,31.903682 10.474156,29.93619 9.617638,28.516904 8.5609172,25.628194 7.8632327,23.720959 7.7648336,23.110434 7.7473045,20.580023 7.7314026,18.285209 7.8402802,17.3703 8.2842016,16.068341 10.048724,10.89318 12.88286,7.5519701 17.332732,5.4008765 c 1.288811,-0.6230191 2.717054,-1.2092229 3.173871,-1.3026748 0.732784,-0.1499073 0.876958,-0.079774 1.22446,0.5956309 0.428965,0.8337293 1.340486,1.3019618 2.761732,1.4186552 l 0.911282,0.074823 0.05136,1.5168983 c 0.09155,2.7038739 1.73775,4.3139289 4.133298,4.0425489 1.260837,-0.142837 1.67313,0.128105 1.674548,1.100453 5.48e-4,0.367014 0.229272,1.043616 0.508302,1.503558 0.774216,1.276184 1.728183,1.779712 3.384805,1.786586 l 1.443424,0.0061 -0.08766,1.600035 c -0.07956,1.452399 -0.01911,1.677147 0.655294,2.435756 0.60229,0.677495 1.013238,0.86936 2.170584,1.013423 l 1.427635,0.177705 -0.08288,1.044151 c -0.112926,1.42253 -1.225299,4.660056 -2.201955,6.408705 -1.182596,2.117373 -4.376875,5.196893 -6.567602,6.331645 -4.415905,2.287353 -8.313807,2.649917 -12.627754,1.174578 z m 11.334232,-2.399135 c 3.535811,-1.70891 6.501044,-5.190212 7.693417,-9.032374 0.591769,-1.906859 0.704756,-1.649821 -1.298818,-2.954804 C 35.789405,21.145215 35.155354,20.20382 34.98546,18.930729 34.846526,17.889714 34.79224,17.835801 33.503628,17.459292 31.985117,17.015612 30.724822,15.869729 30.100369,14.364987 29.770946,13.571179 29.556982,13.383177 28.980618,13.38111 28.588734,13.379735 27.66053,13.094236 26.917942,12.746738 25.334955,12.005971 24.262875,10.581188 24.041765,8.9243243 23.914214,7.9685414 23.776488,7.7800787 22.957488,7.4406106 22.441495,7.2267366 21.652007,6.7732675 21.203074,6.4329013 20.532357,5.9243896 20.244326,5.8551285 19.587591,6.0444326 c -1.725264,0.4973072 -4.154147,2.0374066 -5.7858,3.6686463 -1.527523,1.5271341 -3.36876,4.2127771 -3.36876,4.9136991 0,0.144927 0.339921,0.40502 0.755381,0.577981 3.312145,1.378888 2.761441,6.148831 -0.775529,6.717282 -0.7130215,0.114581 -1.0213153,0.295436 -1.0213153,0.599088 0,0.955553 0.8421663,3.596188 1.6067133,5.037897 0.979775,1.847564 4.189652,5.002496 6.186132,6.080244 l 1.407906,0.760018 0.607113,-0.709387 c 0.898756,-1.050164 2.766461,-1.803735 3.965767,-1.600085 1.409929,0.239413 2.568722,1.036254 3.08289,2.119945 0.429388,0.904995 0.487402,0.935037 1.493743,0.773451 0.575852,-0.09247 1.870897,-0.566313 2.877876,-1.053003 z m 0.320423,-5.501947 c -0.784748,-0.444232 -1.500379,-1.62887 -1.500379,-2.483685 0,-0.768131 0.669122,-1.984978 1.358277,-2.470129 0.319084,-0.224626 1.034457,-0.408412 1.589719,-0.408412 0.800982,0 1.192467,0.183826 1.894813,0.889731 0.747008,0.750792 0.885243,1.075426 0.885243,2.078894 0,1.645316 -0.782983,2.540085 -2.351885,2.687664 -0.746745,0.07025 -1.418175,-0.03502 -1.875788,-0.294063 z M 19.277655,27.710957 c -2.714369,-1.378208 -3.350232,-4.6518 -1.364322,-7.023881 1.944177,-2.322233 5.705805,-1.960279 7.255909,0.698181 1.077414,1.847785 0.731333,4.178532 -0.839653,5.654838 -1.477928,1.388852 -3.190068,1.616214 -5.051934,0.670862 z m -1.45881,-13.482632 c -2.607277,-2.122679 -0.176455,-6.3498746 2.827574,-4.9171443 1.931469,0.9211873 2.290335,3.3601743 0.693155,4.7109243 -0.955147,0.807778 -2.659239,0.90759 -3.520729,0.20622 z"
       id="path1297"
       inkscape:connector-curvature="0" />
    <path
       style="display:none;fill:#4a382c;fill-rule:nonzero;stroke:none;stroke-width:0.41056949;stroke-linecap:butt;stroke-linejoin:round;stroke-miterlimit:4;stroke-dasharray:none;stroke-opacity:1;paint-order:stroke markers fill"
       d="m 21.889136,36.987734 c 0,-0.115118 -0.691812,-0.352946 -1.537365,-0.528475 C 16.135293,35.583944 11.694672,31.960316 9.7112268,27.776378 9.1312685,26.552997 8.5730408,25.139893 8.470721,24.636149 8.3683984,24.132403 8.1658417,23.644237 8.0205934,23.551332 7.6821298,23.334842 7.6490601,17.589842 7.9849167,17.353479 8.1219703,17.25702 8.4481846,16.471556 8.7098371,15.607993 10.127593,10.928779 13.878762,6.8299244 18.257369,5.1755271 c 0.858519,-0.3243795 1.48011,-0.671024 1.381314,-0.7703208 -0.09879,-0.099297 0.006,-0.1805392 0.23302,-0.1805392 0.226958,0 0.59006,-0.068425 0.806892,-0.1520531 0.260053,-0.100298 0.529266,0.1103731 0.790926,0.6189272 0.455397,0.8851051 1.821851,1.626611 2.997535,1.626611 0.800058,0 0.80684,0.011587 0.80684,1.3779325 0,2.6764953 1.530589,4.2483093 4.136885,4.2483093 h 1.403043 l 0.314218,1.243168 c 0.531721,2.103684 1.809297,3.074647 4.04557,3.074647 h 1.333493 l -0.157106,1.373848 c -0.259034,2.265178 0.950298,3.704086 3.118181,3.710134 l 1.16731,0.0033 v 1.098172 c 0,0.603994 -0.08789,1.137424 -0.195332,1.185399 -0.107422,0.04798 -0.456744,0.911537 -0.776248,1.919029 -0.845749,2.66689 -2.287483,4.929004 -4.416484,6.929562 -2.085718,1.959885 -4.86133,3.496835 -7.208674,3.991693 -0.804666,0.169636 -1.463028,0.401875 -1.463028,0.516092 0,0.114233 -1.054481,0.207665 -2.343295,0.207665 -1.288811,0 -2.343293,-0.09421 -2.343293,-0.209327 z m 8.722262,-2.656283 c 2.579436,-1.148146 5.645262,-4.083708 6.950524,-6.655199 0.668462,-1.316934 1.511372,-3.755748 1.511372,-4.372889 0,-0.291659 -0.503419,-0.74104 -1.346589,-1.20204 C 36.091643,21.207356 35.485662,20.426862 35.224617,18.87867 35.036223,17.761379 34.964399,17.681506 33.81308,17.30895 32.104579,16.756096 31.074568,15.903278 30.406036,14.48802 29.889977,13.395543 29.715087,13.247539 28.743149,13.080776 25.981569,12.606949 24.761595,11.295629 24.114331,8.1053771 24.010967,7.5959153 23.764947,7.3607585 23.206291,7.2374351 22.784844,7.1444007 21.966748,6.7237031 21.388297,6.3025515 l -1.051731,-0.7657306 -1.4097,0.5301105 c -3.21155,1.207685 -6.495254,4.1207396 -8.103285,7.1886226 -0.746954,1.425075 -0.759809,1.503344 -0.294063,1.790485 1.793875,1.105961 2.142691,1.445637 2.451433,2.387204 0.664844,2.027568 -0.851511,4.324363 -2.854961,4.324363 -0.9682876,0 -1.1226185,0.454115 -0.7326746,2.155867 0.5982727,2.610931 1.9873636,5.087221 3.9928696,7.117973 1.783133,1.805577 4.336068,3.548759 5.197249,3.548759 0.22342,0 0.647014,-0.339883 0.941321,-0.755292 1.575022,-2.223124 5.177804,-1.897538 6.441587,0.582133 0.231921,0.455055 0.540045,0.904104 0.68472,0.997891 0.296838,0.192423 2.392568,-0.375646 3.960336,-1.073486 z m 0.419207,-6.135201 c -1.248686,-0.695602 -1.642659,-2.194301 -0.937244,-3.565338 1.221376,-2.373851 4.814077,-1.393475 4.814077,1.313665 0,2.051548 -2.073856,3.25605 -3.876833,2.251673 z M 19.155294,27.459149 c -1.171969,-0.676114 -2.213111,-2.435052 -2.213111,-3.738899 0,-1.064503 0.993388,-2.979058 1.884154,-3.631328 0.451696,-0.330757 1.261801,-0.560369 2.213111,-0.627271 1.254764,-0.08824 1.648881,-0.0042 2.405689,0.512646 0.497797,0.339999 1.181863,1.027533 1.520147,1.52785 0.514298,0.760646 0.597859,1.156759 0.51006,2.417885 -0.168691,2.423058 -1.569185,3.873914 -3.900867,4.041137 -1.083192,0.07768 -1.600362,-0.02964 -2.419183,-0.50202 z M 18.838723,14.508583 c -0.924196,-0.17979 -1.897413,-1.543652 -1.890752,-2.649687 0.01485,-2.4759784 2.934991,-3.4975283 4.53492,-1.586482 1.204643,1.43889 0.719126,3.311258 -1.051432,4.054795 -0.477891,0.200687 -0.901946,0.348848 -0.942345,0.329247 -0.04041,-0.0196 -0.333076,-0.08614 -0.650391,-0.147865 z"
       id="path1299"
       inkscape:connector-curvature="0" />
    <path
       style="display:inline;opacity:1;fill:#322f2f;fill-rule:nonzero;stroke:none;stroke-width:0.41056949;stroke-linecap:butt;stroke-linejoin:round;stroke-miterlimit:4;stroke-dasharray:none;stroke-opacity:1;paint-order:stroke markers fill"
       d="m 22.279686,36.935378 c 0.444576,-0.192011 0.403889,-0.227592 -0.278202,-0.243295 -1.239522,-0.02854 -3.448641,-0.760559 -5.449852,-1.805889 -2.298361,-1.200547 -5.15454,-4.0232 -6.326979,-6.252717 C 9.2220807,26.726983 8.3577775,24.315459 8.3318033,23.352175 8.3156689,22.75408 8.2895852,22.735084 8.1119338,23.192168 7.8363773,23.901198 7.6013365,20.809046 7.7741394,18.748222 c 0.094235,-1.123825 0.1895998,-1.421351 0.3355104,-1.046743 0.1780511,0.457128 0.2061695,0.433792 0.2221535,-0.184359 0.026768,-1.034947 1.1218094,-3.908413 2.1332057,-5.597641 1.802129,-3.0099084 5.267081,-5.8937687 8.196431,-6.8218453 0.759917,-0.2407566 1.321449,-0.5356653 1.247852,-0.655353 -0.07361,-0.1196875 0.107427,-0.2176136 0.402282,-0.2176136 0.677271,0 0.941015,0.087524 0.873863,0.2899985 -0.02903,0.087536 0.287694,0.4870081 0.703834,0.8877165 0.565175,0.5442162 1.095229,0.7612616 2.094866,0.8578008 l 1.33825,0.1292413 -0.160033,1.0765284 c -0.123149,0.8283843 -0.0237,1.3444356 0.431394,2.2387941 0.863969,1.6978593 1.736737,2.2396473 3.607843,2.2396473 1.155119,0 1.572239,0.09928 1.649089,0.39253 0.05657,0.215891 0.180132,0.73862 0.274563,1.161623 0.406114,1.819164 2.315164,3.146413 4.283195,2.977848 l 0.931013,-0.07975 -0.08686,1.342716 c -0.155257,2.39964 1.223641,3.914693 3.375182,3.708471 l 1.007729,-0.09659 -0.0302,1.184499 c -0.01661,0.651478 -0.08904,0.951041 -0.160933,0.665699 -0.08328,-0.33051 -0.305125,0.171386 -0.611231,1.38287 -1.573783,6.228548 -7.105454,11.306004 -13.094033,12.018858 -0.976923,0.116295 -1.182631,0.207624 -0.803359,0.356708 0.294717,0.115859 -0.478843,0.200395 -1.833484,0.200395 -1.537039,0 -2.164126,-0.07738 -1.822563,-0.224901 z m 7.294173,-1.94454 c 4.360012,-1.566616 8.116517,-5.675646 9.386775,-10.267669 0.525843,-1.900939 0.418298,-2.333136 -0.638617,-2.566452 -1.575476,-0.347785 -2.893846,-1.93971 -2.893846,-3.494301 0,-0.91296 -0.274747,-1.153869 -1.822563,-1.5981 -1.379491,-0.39592 -2.991749,-1.954567 -3.25155,-3.143432 -0.177702,-0.813182 -0.238125,-0.845458 -2.2068,-1.178859 C 26.229025,12.417167 24.919389,10.976984 24.391702,8.6121082 24.133202,7.453614 24.001591,7.2801777 23.161045,6.9903494 22.643381,6.8118548 21.863724,6.4109523 21.428471,6.0994546 20.347063,5.3255214 19.786395,5.3807514 17.490234,6.4874001 c -1.492293,0.71922 -2.463266,1.4444405 -3.941571,2.9439639 -1.928268,1.955944 -3.8426268,4.975273 -3.503829,5.526239 0.08975,0.145943 0.621458,0.50033 1.181596,0.78754 1.093986,0.560939 1.810262,1.64564 1.810262,2.741393 0,1.553004 -1.427353,3.009386 -2.949399,3.009386 -1.110718,0 -1.2868477,0.529293 -0.832033,2.500356 0.6761937,2.930469 1.79933,4.943648 4.010218,7.188171 1.990655,2.020938 4.388283,3.650398 5.378038,3.654987 0.309128,0.0013 0.714062,-0.311249 0.972476,-0.750928 0.496267,-0.84437 1.870711,-1.601788 2.906682,-1.601788 1.056022,0 2.406371,0.668963 2.861154,1.417413 0.225938,0.37184 0.590122,0.971811 0.809295,1.333268 0.449275,0.74094 0.679077,0.724183 3.380736,-0.246563 z m 1.405527,-7.026518 c -0.957428,-0.738816 -1.301309,-2.308852 -0.73758,-3.367529 0.362953,-0.68162 1.937138,-1.342016 2.666908,-1.118813 0.775392,0.237161 1.490468,0.903021 1.776053,1.653814 0.309457,0.813554 -0.155731,2.253021 -0.89665,2.774616 -0.668384,0.470527 -2.232242,0.502769 -2.808731,0.05791 z m 2.356696,-1.479168 c 0.399796,-0.750809 0.336064,-1.008062 -0.363928,-1.46904 -1.123188,-0.739669 -2.067546,0.210457 -1.5518,1.561279 0.229161,0.600211 1.581684,0.535091 1.915728,-0.09222 z m -13.993798,0.85602 c -2.416175,-1.196919 -2.872168,-5.0006 -0.808688,-6.745705 3.729053,-3.153694 8.762333,1.416569 6.08425,5.524554 -1.012414,1.552972 -3.461404,2.119847 -5.275562,1.221151 z m 4.101443,-1.793374 c 0.973961,-0.978898 0.927198,-2.688909 -0.103081,-3.76975 -1.878414,-1.970579 -4.836256,-0.768706 -4.836256,1.965137 0,2.653654 3.002973,3.750805 4.93935,1.804613 z M 18.065232,13.805035 c -1.873357,-1.584315 -0.845173,-4.3466546 1.617893,-4.3466546 0.408703,0 0.990101,0.3077817 1.444941,0.7649276 1.45385,1.461216 0.698257,3.785826 -1.336261,4.111065 -0.746143,0.119278 -1.081024,0.01662 -1.726573,-0.529338 z m 2.209636,-0.997079 c 0.431624,-0.433812 0.391501,-1.387744 -0.07473,-1.776641 -0.531653,-0.44347 -1.623091,-0.12182 -1.832058,0.539912 -0.328819,1.041267 1.148146,1.999216 1.906788,1.236729 z m 3.014721,21.916897 c -0.314572,-0.22145 -0.79236,-0.311865 -1.150547,-0.217721 -0.573172,0.150645 -0.579976,0.173824 -0.105782,0.360331 0.278733,0.10963 0.796479,0.207604 1.150546,0.217721 0.63542,0.01815 0.63679,0.0135 0.105782,-0.360331 z M 11.329549,19.605894 c 0.515194,-0.739271 0.515194,-1.499445 0,-2.238717 -0.488258,-0.700617 -1.5890212,-0.777624 -1.7675185,-0.123638 -0.2917131,1.068773 -0.4446536,2.448087 -0.2979082,2.686727 0.3020315,0.491177 1.6439447,0.280438 2.0654267,-0.324362 z"
       id="path1301"
       inkscape:connector-curvature="0" />
  </g>
</svg>
